<svg fill="#0b2d3b" height="24" width="24" xmlns="http://www.w3.org/2000/svg"><g stroke-width=".03073" transform="translate(3.487836)"><path d="m6.7947963 7.7746495c4.6418957 0 6.6956007 3.6019675 6.6956007 7.5134445 0 3.911478-2.053705 7.513445-6.6956007 7.513445-4.6418951 0-6.70260706-3.601936-6.70260706-7.513445 0-3.911508 2.05367486-7.5134445 6.70260706-7.5134445zm0 13.5073295c3.0946171 0 4.7544587-2.673342 4.7544587-5.993885s-1.6598416-5.9938849-4.7544587-5.9938849c-3.0946172 0-4.7614649 2.6733419-4.7614649 5.9938849s1.6598413 5.993885 4.7614649 5.993885z"/><path d="m16.876395.49459829c-.077501-.57667606-.309972-.66106018-.507227-.18987964-.206074.47016646-.505659.89362355-.880563 1.24477335-.503386.3158412-1.052159.5529834-1.62733.7032523-.605838.1758053-1.408932.4219513-1.711866.5485275a6.7482715 6.7482715 0 0 0 -1.007386.4782177 1.8364149 1.8364149 0 0 0 -.598801.7032522c-.130172.3379667-.208564.6935724-.232472 1.0548937a7.1320871 7.1320871 0 0 0 .190218 1.7018797l.225403 1.0267452c-1.2680357 2.3137107-8.2845479 12.3772707-8.7283481 13.1367897-.4438003.759518-.7044508.893132-1.1130654 1.026745-.94398977.112532-1.26803587 1.814412-.29589757 2.046484.97213837.232072 1.73300907-1.315083 1.73300907-1.315083l8.946746-14.5222135h1.437142a5.0501409 5.0501409 0 0 0 1.817516-.6259053 4.6445071 4.6445071 0 0 0 1.507544-1.6245019c.300353-.5939155.554735-1.2098643.76084-1.8425301.140896-.5401076.219073-1.0942587.232471-1.6526505a15.762254 15.762254 0 0 0 -.147933-1.89879641zm-.528338 1.68780541-.704482 1.2799283c-.190218.3305301-.493122.977516-.704481 1.4416594a5.8208451 5.8208451 0 0 1 -.901706 1.3291575c-.342361.3136594-.710105.5977875-1.09896.8509398-.388671.2287222-.80546.4060026-1.239887.5274469-.345189.084384-.380405-.1265762-.07747-.4711806a12.254136 12.254136 0 0 1 .845347-.9072061c.162038-.1476876.521301-.4992983.796056-.7805992a6.3334187 6.3334187 0 0 0 .753772-.9282869c.133859-.2180281.514264-.8017106.845347-1.2799283.331083-.4782176.803124-1.1322407 1.04967-1.4065045.246545-.2742637.528368-.4992983.626981-.4289884.09861.07031.0141.4008706-.190187.7735928z"/></g></svg>