<?xml version="1.0" encoding="UTF-8" standalone="no"?>
<!-- Uploaded to: SVG Repo, www.svgrepo.com, Generator: SVG Repo Mixer Tools -->

<svg
   fill="#000000"
   width="24"
   height="26.063347"
   viewBox="0 0 1.56 1.6941175"
   version="1.1"
   id="svg51"
   sodipodi:docname="group.svg"
   inkscape:version="1.1.2 (0a00cf5339, 2022-02-04)"
   xmlns:inkscape="http://www.inkscape.org/namespaces/inkscape"
   xmlns:sodipodi="http://sodipodi.sourceforge.net/DTD/sodipodi-0.dtd"
   xmlns="http://www.w3.org/2000/svg"
   xmlns:svg="http://www.w3.org/2000/svg">
  <defs
     id="defs55" />
  <sodipodi:namedview
     id="namedview53"
     pagecolor="#ffffff"
     bordercolor="#666666"
     borderopacity="1.0"
     inkscape:pageshadow="2"
     inkscape:pageopacity="0.0"
     inkscape:pagecheckerboard="0"
     showgrid="false"
     fit-margin-top="0"
     fit-margin-left="0"
     fit-margin-right="0"
     fit-margin-bottom="0"
     inkscape:zoom="13.372453"
     inkscape:cx="28.379236"
     inkscape:cy="13.722239"
     inkscape:window-width="1366"
     inkscape:window-height="733"
     inkscape:window-x="0"
     inkscape:window-y="16"
     inkscape:window-maximized="1"
     inkscape:current-layer="svg51" />
  <path
     d="m 0.82448524,1.2199649 c -0.0975,-0.039 -0.11374999,-0.07475 -0.11374999,-0.11375 0,-0.039 0.0259997,-0.074749 0.0584996,-0.104 0.0584996,-0.0487498 0.0845003,-0.12675006 0.0845003,-0.20800006 0,-0.15274996 -0.0942501,-0.27625001 -0.26975003,-0.27625001 -0.17549997,0 -0.26975002,0.12350005 -0.26975002,0.27625001 0,0.0812497 0.0259997,0.15925002 0.0845003,0.20800006 0.0324999,0.02925 0.0584996,0.065 0.0584996,0.104 0,0.039 -0.01625,0.07475 -0.11374999,0.11375 -0.14299981,0.0585 -0.27949982,0.1235 -0.28274981,0.247 0.0065011,0.0845 0.07149995,0.156 0.15275005,0.156 h 0.7475 c 0.0812498,0 0.14624995,-0.0715 0.14624995,-0.15275 -0.00325,-0.1235 -0.13974997,-0.19175 -0.28274996,-0.25025 z M 1.3834852,0.61546488 c 0,-0.24050003 -0.19825,-0.43875002 -0.43874999,-0.43875002 V 0.06296487 l -0.221,0.17874996 c -0.00975,0.00975 -0.006501,0.0259997 0.003251,0.0357504 l 0.21774946,0.1754996 V 0.33921487 c 0.15274963,0 0.27624953,0.12349996 0.27624953,0.27625001 h -0.11375 l 0.17875,0.221 c 0.00975,0.00975 0.026,0.00975 0.03575,0 l 0.1754996,-0.221 z"
     id="path49"
     style="stroke-width:0.0325" />
</svg>
